<svg xmlns="http://www.w3.org/2000/svg" width="27" height="27" viewBox="0 0 27 27" fill="none">
  <path d="M22.3875 23.5969L14.9906 16.2C14.4281 16.6875 13.7723 17.0672 13.023 17.3391C12.2738 17.6109 11.4765 17.7469 10.6312 17.7469C8.60321 17.7469 6.88683 17.0437 5.4821 15.6375C4.07737 14.2312 3.375 12.5344 3.375 10.5469C3.375 8.55936 4.07812 6.86249 5.48438 5.45624C6.89062 4.04999 8.59219 3.34686 10.5891 3.34686C12.5859 3.34686 14.2828 4.04999 15.6797 5.45624C17.0766 6.86249 17.775 8.56077 17.775 10.5511C17.775 11.3545 17.6437 12.1312 17.3812 12.8812C17.1187 13.6312 16.725 14.3344 16.2 14.9906L23.625 22.3594L22.3875 23.5969ZM10.6031 16.0594C12.1266 16.0594 13.4215 15.5203 14.4879 14.4422C15.5543 13.364 16.0875 12.0656 16.0875 10.5469C16.0875 9.02811 15.5543 7.72968 14.4879 6.65155C13.4215 5.57343 12.1266 5.03436 10.6031 5.03436C9.06407 5.03436 7.75586 5.57343 6.67851 6.65155C5.60117 7.72968 5.0625 9.02811 5.0625 10.5469C5.0625 12.0656 5.60117 13.364 6.67851 14.4422C7.75586 15.5203 9.06407 16.0594 10.6031 16.0594Z" fill="white"/>
</svg>